{
 "cells": [
  {
   "cell_type": "code",
   "execution_count": null,
   "id": "different-temple",
   "metadata": {},
   "outputs": [],
   "source": [
    "pip install ffmpeg"
   ]
  },
  {
   "cell_type": "code",
   "execution_count": null,
   "id": "front-genealogy",
   "metadata": {},
   "outputs": [],
   "source": [
    "ls"
   ]
  },
  {
   "cell_type": "code",
   "execution_count": 11,
   "id": "contained-stage",
   "metadata": {},
   "outputs": [
    {
     "name": "stdout",
     "output_type": "stream",
     "text": [
      "ffmpeg version 3.4.8-0ubuntu0.2 Copyright (c) 2000-2020 the FFmpeg developers\n",
      "  built with gcc 7 (Ubuntu 7.5.0-3ubuntu1~18.04)\n",
      "  configuration: --prefix=/usr --extra-version=0ubuntu0.2 --toolchain=hardened --libdir=/usr/lib/x86_64-linux-gnu --incdir=/usr/include/x86_64-linux-gnu --enable-gpl --disable-stripping --enable-avresample --enable-avisynth --enable-gnutls --enable-ladspa --enable-libass --enable-libbluray --enable-libbs2b --enable-libcaca --enable-libcdio --enable-libflite --enable-libfontconfig --enable-libfreetype --enable-libfribidi --enable-libgme --enable-libgsm --enable-libmp3lame --enable-libmysofa --enable-libopenjpeg --enable-libopenmpt --enable-libopus --enable-libpulse --enable-librubberband --enable-librsvg --enable-libshine --enable-libsnappy --enable-libsoxr --enable-libspeex --enable-libssh --enable-libtheora --enable-libtwolame --enable-libvorbis --enable-libvpx --enable-libwavpack --enable-libwebp --enable-libx265 --enable-libxml2 --enable-libxvid --enable-libzmq --enable-libzvbi --enable-omx --enable-openal --enable-opengl --enable-sdl2 --enable-libdc1394 --enable-libdrm --enable-libiec61883 --enable-chromaprint --enable-frei0r --enable-libopencv --enable-libx264 --enable-shared\n",
      "  libavutil      55. 78.100 / 55. 78.100\n",
      "  libavcodec     57.107.100 / 57.107.100\n",
      "  libavformat    57. 83.100 / 57. 83.100\n",
      "  libavdevice    57. 10.100 / 57. 10.100\n",
      "  libavfilter     6.107.100 /  6.107.100\n",
      "  libavresample   3.  7.  0 /  3.  7.  0\n",
      "  libswscale      4.  8.100 /  4.  8.100\n",
      "  libswresample   2.  9.100 /  2.  9.100\n",
      "  libpostproc    54.  7.100 / 54.  7.100\n",
      "Input #0, mov,mp4,m4a,3gp,3g2,mj2, from 'kk/15.mp4':\n",
      "  Metadata:\n",
      "    major_brand     : isom\n",
      "    minor_version   : 512\n",
      "    compatible_brands: isomiso2avc1mp41\n",
      "    encoder         : Lavf57.83.100\n",
      "  Duration: 00:00:30.06, start: 0.000000, bitrate: 7644 kb/s\n",
      "    Stream #0:0(und): Video: h264 (High) (avc1 / 0x31637661), yuv420p, 2560x1440, 7640 kb/s, 29.97 fps, 29.97 tbr, 30k tbn, 59.94 tbc (default)\n",
      "    Metadata:\n",
      "      handler_name    : VideoHandler\n",
      "    Stream #0:1(und): Audio: aac (LC) (mp4a / 0x6134706D), 48000 Hz, stereo, fltp, 2 kb/s (default)\n",
      "    Metadata:\n",
      "      handler_name    : SoundHandler\n",
      "Stream mapping:\n",
      "  Stream #0:0 -> #0:0 (h264 (native) -> png (native))\n",
      "Press [q] to stop, [?] for help\n",
      "Output #0, image2, to '13/out%d.png':\n",
      "  Metadata:\n",
      "    major_brand     : isom\n",
      "    minor_version   : 512\n",
      "    compatible_brands: isomiso2avc1mp41\n",
      "    encoder         : Lavf57.83.100\n",
      "    Stream #0:0(und): Video: png, rgb24, 2560x1440, q=2-31, 200 kb/s, 29.97 fps, 29.97 tbn, 29.97 tbc (default)\n",
      "    Metadata:\n",
      "      handler_name    : VideoHandler\n",
      "      encoder         : Lavc57.107.100 png\n",
      "frame=  900 fps= 31 q=-0.0 Lsize=N/A time=00:00:30.03 bitrate=N/A speed=1.03x    \n",
      "video:2597430kB audio:0kB subtitle:0kB other streams:0kB global headers:0kB muxing overhead: unknown\n"
     ]
    }
   ],
   "source": [
    "!ffmpeg -i \"kk/15.mp4\" \"13/out%d.png\""
   ]
  },
  {
   "cell_type": "code",
   "execution_count": null,
   "id": "pursuant-valuation",
   "metadata": {},
   "outputs": [],
   "source": [
    "import glob"
   ]
  },
  {
   "cell_type": "code",
   "execution_count": 12,
   "id": "dynamic-starter",
   "metadata": {},
   "outputs": [
    {
     "name": "stdout",
     "output_type": "stream",
     "text": [
      "Using TensorFlow backend.\n",
      "/home/mitho/Documents/ibtehaj/DanbooRegion/env/lib/python3.6/site-packages/tensorflow/python/framework/dtypes.py:493: FutureWarning: Passing (type, 1) or '1type' as a synonym of type is deprecated; in a future version of numpy, it will be understood as (type, (1,)) / '(1,)type'.\n",
      "  _np_qint8 = np.dtype([(\"qint8\", np.int8, 1)])\n",
      "/home/mitho/Documents/ibtehaj/DanbooRegion/env/lib/python3.6/site-packages/tensorflow/python/framework/dtypes.py:494: FutureWarning: Passing (type, 1) or '1type' as a synonym of type is deprecated; in a future version of numpy, it will be understood as (type, (1,)) / '(1,)type'.\n",
      "  _np_quint8 = np.dtype([(\"quint8\", np.uint8, 1)])\n",
      "/home/mitho/Documents/ibtehaj/DanbooRegion/env/lib/python3.6/site-packages/tensorflow/python/framework/dtypes.py:495: FutureWarning: Passing (type, 1) or '1type' as a synonym of type is deprecated; in a future version of numpy, it will be understood as (type, (1,)) / '(1,)type'.\n",
      "  _np_qint16 = np.dtype([(\"qint16\", np.int16, 1)])\n",
      "/home/mitho/Documents/ibtehaj/DanbooRegion/env/lib/python3.6/site-packages/tensorflow/python/framework/dtypes.py:496: FutureWarning: Passing (type, 1) or '1type' as a synonym of type is deprecated; in a future version of numpy, it will be understood as (type, (1,)) / '(1,)type'.\n",
      "  _np_quint16 = np.dtype([(\"quint16\", np.uint16, 1)])\n",
      "/home/mitho/Documents/ibtehaj/DanbooRegion/env/lib/python3.6/site-packages/tensorflow/python/framework/dtypes.py:497: FutureWarning: Passing (type, 1) or '1type' as a synonym of type is deprecated; in a future version of numpy, it will be understood as (type, (1,)) / '(1,)type'.\n",
      "  _np_qint32 = np.dtype([(\"qint32\", np.int32, 1)])\n",
      "/home/mitho/Documents/ibtehaj/DanbooRegion/env/lib/python3.6/site-packages/tensorflow/python/framework/dtypes.py:502: FutureWarning: Passing (type, 1) or '1type' as a synonym of type is deprecated; in a future version of numpy, it will be understood as (type, (1,)) / '(1,)type'.\n",
      "  np_resource = np.dtype([(\"resource\", np.ubyte, 1)])\n",
      "2021-06-03 18:47:45.809165: I tensorflow/core/platform/cpu_feature_guard.cc:137] Your CPU supports instructions that this TensorFlow binary was not compiled to use: SSE4.1 SSE4.2 AVX AVX2 FMA\n",
      "/home/mitho/Documents/ibtehaj/DanbooRegion/env/lib/python3.6/site-packages/keras/engine/saving.py:292: UserWarning: No training configuration found in save file: the model was *not* compiled. Compile it manually.\n",
      "  warnings.warn('No training configuration found in save file: '\n",
      "begin load\n",
      "/home/mitho/Documents/ibtehaj/DanbooRegion/code/13/\n",
      "./current_skeleton.png\n",
      "./current_region.png\n",
      "./current_flatten.png\n",
      "ok!\n"
     ]
    }
   ],
   "source": [
    "!python segment.py \"/home/mitho/Documents/ibtehaj/DanbooRegion/code/input/\" \"./output/\"\n"
   ]
  },
  {
   "cell_type": "code",
   "execution_count": 13,
   "id": "tribal-empty",
   "metadata": {},
   "outputs": [
    {
     "name": "stdout",
     "output_type": "stream",
     "text": [
      "ffmpeg version 3.4.8-0ubuntu0.2 Copyright (c) 2000-2020 the FFmpeg developers\n",
      "  built with gcc 7 (Ubuntu 7.5.0-3ubuntu1~18.04)\n",
      "  configuration: --prefix=/usr --extra-version=0ubuntu0.2 --toolchain=hardened --libdir=/usr/lib/x86_64-linux-gnu --incdir=/usr/include/x86_64-linux-gnu --enable-gpl --disable-stripping --enable-avresample --enable-avisynth --enable-gnutls --enable-ladspa --enable-libass --enable-libbluray --enable-libbs2b --enable-libcaca --enable-libcdio --enable-libflite --enable-libfontconfig --enable-libfreetype --enable-libfribidi --enable-libgme --enable-libgsm --enable-libmp3lame --enable-libmysofa --enable-libopenjpeg --enable-libopenmpt --enable-libopus --enable-libpulse --enable-librubberband --enable-librsvg --enable-libshine --enable-libsnappy --enable-libsoxr --enable-libspeex --enable-libssh --enable-libtheora --enable-libtwolame --enable-libvorbis --enable-libvpx --enable-libwavpack --enable-libwebp --enable-libx265 --enable-libxml2 --enable-libxvid --enable-libzmq --enable-libzvbi --enable-omx --enable-openal --enable-opengl --enable-sdl2 --enable-libdc1394 --enable-libdrm --enable-libiec61883 --enable-chromaprint --enable-frei0r --enable-libopencv --enable-libx264 --enable-shared\n",
      "  libavutil      55. 78.100 / 55. 78.100\n",
      "  libavcodec     57.107.100 / 57.107.100\n",
      "  libavformat    57. 83.100 / 57. 83.100\n",
      "  libavdevice    57. 10.100 / 57. 10.100\n",
      "  libavfilter     6.107.100 /  6.107.100\n",
      "  libavresample   3.  7.  0 /  3.  7.  0\n",
      "  libswscale      4.  8.100 /  4.  8.100\n",
      "  libswresample   2.  9.100 /  2.  9.100\n",
      "  libpostproc    54.  7.100 / 54.  7.100\n",
      "Input #0, image2, from '9/*.png':\n",
      "  Duration: 00:00:04.67, start: 0.000000, bitrate: N/A\n",
      "    Stream #0:0: Video: png, rgb24(pc), 3640x2048, 12 fps, 12 tbr, 12 tbn, 12 tbc\n",
      "Stream mapping:\n",
      "  Stream #0:0 -> #0:0 (png (native) -> h264 (libx264))\n",
      "Press [q] to stop, [?] for help\n",
      "\u001b[1;36m[libx264 @ 0x55ea757dca80] \u001b[0musing cpu capabilities: MMX2 SSE2Fast SSSE3 SSE4.2 AVX FMA3 BMI2 AVX2\n",
      "\u001b[1;36m[libx264 @ 0x55ea757dca80] \u001b[0mprofile High 4:4:4 Predictive, level 5.1, 4:4:4 8-bit\n",
      "\u001b[1;36m[libx264 @ 0x55ea757dca80] \u001b[0m264 - core 152 r2854 e9a5903 - H.264/MPEG-4 AVC codec - Copyleft 2003-2017 - http://www.videolan.org/x264.html - options: cabac=1 ref=3 deblock=1:0:0 analyse=0x1:0x111 me=hex subme=7 psy=1 psy_rd=1.00:0.00 mixed_ref=1 me_range=16 chroma_me=1 trellis=1 8x8dct=0 cqm=0 deadzone=21,11 fast_pskip=1 chroma_qp_offset=4 threads=12 lookahead_threads=2 sliced_threads=0 nr=0 decimate=1 interlaced=0 bluray_compat=0 constrained_intra=0 bframes=3 b_pyramid=2 b_adapt=1 b_bias=0 direct=1 weightb=1 open_gop=0 weightp=2 keyint=250 keyint_min=9 scenecut=40 intra_refresh=0 rc_lookahead=40 rc=crf mbtree=1 crf=23.0 qcomp=0.60 qpmin=0 qpmax=69 qpstep=4 ip_ratio=1.40 aq=1:1.00\n",
      "Output #0, mp4, to '78.mp4':\n",
      "  Metadata:\n",
      "    encoder         : Lavf57.83.100\n",
      "    Stream #0:0: Video: h264 (libx264) (avc1 / 0x31637661), yuv444p, 3640x2048, q=-1--1, 9 fps, 18432 tbn, 9 tbc\n",
      "    Metadata:\n",
      "      encoder         : Lavc57.107.100 libx264\n",
      "    Side data:\n",
      "      cpb: bitrate max/min/avg: 0/0/0 buffer size: 0 vbv_delay: -1\n",
      "\u001b[0;33mPast duration 0.749992 too large\n",
      "\u001b[0m\u001b[0;33mPast duration 0.999992 too large\n",
      "frame=   44 fps=8.1 q=-1.0 Lsize=    8873kB time=00:00:04.55 bitrate=15954.8kbits/s dup=0 drop=12 speed=0.841x    \n",
      "video:8871kB audio:0kB subtitle:0kB other streams:0kB global headers:0kB muxing overhead: 0.011856%\n",
      "\u001b[1;36m[libx264 @ 0x55ea757dca80] \u001b[0mframe I:1     Avg QP:13.25  size:199026\n",
      "\u001b[1;36m[libx264 @ 0x55ea757dca80] \u001b[0mframe P:43    Avg QP:13.31  size:206620\n",
      "\u001b[1;36m[libx264 @ 0x55ea757dca80] \u001b[0mmb I  I16..4: 83.1%  0.0% 16.9%\n",
      "\u001b[1;36m[libx264 @ 0x55ea757dca80] \u001b[0mmb P  I16..4: 83.0%  0.0% 16.7%  P16..4:  0.1%  0.1%  0.0%  0.0%  0.0%    skip: 0.0%\n",
      "\u001b[1;36m[libx264 @ 0x55ea757dca80] \u001b[0mcoded y,u,v intra: 8.7% 8.6% 8.7% inter: 75.0% 87.9% 89.1%\n",
      "\u001b[1;36m[libx264 @ 0x55ea757dca80] \u001b[0mi16 v,h,dc,p: 96%  2%  2%  0%\n",
      "\u001b[1;36m[libx264 @ 0x55ea757dca80] \u001b[0mi4 v,h,dc,ddl,ddr,vr,hd,vl,hu: 36% 20% 24%  4%  3%  4%  3%  3%  2%\n",
      "\u001b[1;36m[libx264 @ 0x55ea757dca80] \u001b[0mWeighted P-Frames: Y:0.0% UV:0.0%\n",
      "\u001b[1;36m[libx264 @ 0x55ea757dca80] \u001b[0mref P L0: 20.3% 17.5% 32.7% 29.6%\n",
      "\u001b[1;36m[libx264 @ 0x55ea757dca80] \u001b[0mkb/s:14864.23\n"
     ]
    }
   ],
   "source": [
    "!ffmpeg -framerate 12 -pattern_type glob -i '9/*.png' -y -r 9 78.mp4"
   ]
  },
  {
   "cell_type": "code",
   "execution_count": null,
   "id": "stopped-african",
   "metadata": {},
   "outputs": [],
   "source": [
    "pip install moviepy\n"
   ]
  },
  {
   "cell_type": "code",
   "execution_count": null,
   "id": "sound-bibliography",
   "metadata": {},
   "outputs": [],
   "source": [
    "ls\n"
   ]
  },
  {
   "cell_type": "code",
   "execution_count": 14,
   "id": "efficient-intermediate",
   "metadata": {},
   "outputs": [
    {
     "name": "stderr",
     "output_type": "stream",
     "text": [
      "\r",
      "t:   0%|          | 0/45 [00:00<?, ?it/s, now=None]"
     ]
    },
    {
     "name": "stdout",
     "output_type": "stream",
     "text": [
      "MoviePy - Building file 78_output.gif with imageio.\n"
     ]
    },
    {
     "name": "stderr",
     "output_type": "stream",
     "text": [
      "                                                            \r"
     ]
    }
   ],
   "source": [
    "from moviepy.editor import *\n",
    "clip = (VideoFileClip(\"78.mp4\"))\n",
    "clip.write_gif(\"78_output.gif\")"
   ]
  },
  {
   "cell_type": "code",
   "execution_count": null,
   "id": "express-smile",
   "metadata": {},
   "outputs": [],
   "source": [
    "import numpy as np\n",
    "import random\n",
    "x=np.random.randint(low=0, high=255, size=(3,))\n",
    "print(x)"
   ]
  },
  {
   "cell_type": "code",
   "execution_count": null,
   "id": "intermediate-teacher",
   "metadata": {},
   "outputs": [],
   "source": [
    "pip install collections"
   ]
  },
  {
   "cell_type": "code",
   "execution_count": null,
   "id": "julian-blast",
   "metadata": {},
   "outputs": [],
   "source": []
  },
  {
   "cell_type": "code",
   "execution_count": null,
   "id": "continuous-tunisia",
   "metadata": {},
   "outputs": [],
   "source": []
  }
 ],
 "metadata": {
  "kernelspec": {
   "display_name": "Python 3",
   "language": "python",
   "name": "python3"
  },
  "language_info": {
   "codemirror_mode": {
    "name": "ipython",
    "version": 3
   },
   "file_extension": ".py",
   "mimetype": "text/x-python",
   "name": "python",
   "nbconvert_exporter": "python",
   "pygments_lexer": "ipython3",
   "version": "3.6.9"
  }
 },
 "nbformat": 4,
 "nbformat_minor": 5
}
